<svg viewBox="0 0 25 21" fill="none" xmlns="http://www.w3.org/2000/svg"><path d="M23.38 0h-21.77a1.61 1.61 0 0 0-1.61 1.61v13.71a1.61 1.61 0 0 0 1.61 1.61h8.31l-.54 1.61h-1.32a.45.45 0 0 0-.29.12.44.44 0 0 0-.11.29v.8h-3.63a.45.45 0 0 0-.29.12.45.45 0 0 0-.12.29c0 .1.05.21.12.28a.4.4 0 0 0 .29.12h17.74c.11 0 .21-.04.28-.12a.4.4 0 0 0 0-.57.4.4 0 0 0-.28-.12h-4.44v-.8a.44.44 0 0 0-.11-.29.45.45 0 0 0-.29-.12h-1.32l-.54-1.61h8.31a1.61 1.61 0 0 0 1.62-1.61v-13.71a1.61 1.61 0 0 0-1.62-1.61Zm-6.85 19.35v.4h-8.07v-.4h8.07Zm-6.3-.81.54-1.61h3.45l.54 1.61h-4.53Zm13.96-3.22c0 .21-.09.42-.24.57a.8.8 0 0 1-.57.23h-21.77a.8.8 0 0 1-.57-.23.82.82 0 0 1-.24-.57v-.81h23.39v.81Zm-17.36-5.24-.15 3.62h-.47l-.15-3.62h.77Zm-.71-.81.27-1.61h.12l.27 1.61h-.66Zm.33-2.42c-.44 0-.81-.55-.81-1.21 0-.41.42-1.01.81-1.44.34.38.8 1 .8 1.44 0 .66-.37 1.21-.8 1.21Zm4.38-.81.05.1v.31h-1.61v-.31l.05-.1h1.51Zm-1.11-.8.36-.71.35.71h-.71Zm1.16 2.01v6.4l.01.05h-1.62v-6.45h1.61Zm3.63-1.61h1.21v.81h-.4a.44.44 0 0 0-.29.11.45.45 0 0 0-.12.29c0 .11.05.21.12.29.08.07.18.11.29.11h.4v.81h-1.21a.36.36 0 0 0-.28.12.4.4 0 0 0 0 .57.4.4 0 0 0 .28.12h1.21v.8h-.4a.4.4 0 0 0-.29.12.45.45 0 0 0-.12.29c0 .1.05.21.12.28a.4.4 0 0 0 .29.12h.4v.81h-1.21a.4.4 0 0 0-.4.4c0 .11.04.21.12.28.07.08.17.12.28.12h1.21v1.61h-2.82v-9.67h2.82v.8h-1.21a.4.4 0 0 0-.28.12.4.4 0 0 0 0 .57c.07.08.17.12.28.12Zm4.84 4.84v3.22h-1.62l.01-.05v-3.17h1.61Zm-1.61-.81v-.31l.8-1.61.81 1.61v.31h-1.61Zm6.45 4.03h-4.04l.01-.05v-4.38a.37.37 0 0 0-.05-.18l-1.21-2.42a.36.36 0 0 0-.14-.16.42.42 0 0 0-.43 0 .46.46 0 0 0-.15.16l-1.21 2.42a.53.53 0 0 0-.04.18v4.43h-.4v-10.08c0-.1-.05-.21-.12-.28a.4.4 0 0 0-.29-.12h-3.62a.4.4 0 0 0-.29.12.38.38 0 0 0-.12.28v10.08h-.4v-7.66a.58.58 0 0 0-.04-.18l-1.21-2.42a.57.57 0 0 0-.15-.16.42.42 0 0 0-.43 0 .57.57 0 0 0-.15.16l-1.2 2.42a.4.4 0 0 0-.05.18v7.61l.01.05h-.98l.17-4.01v-.04l-.01-.04-.37-2.24c.47-.36.78-1 .78-1.73 0-1.04-1.2-2.18-1.34-2.31a.39.39 0 0 0-.27-.11c-.11 0-.2.04-.28.11-.14.13-1.34 1.27-1.34 2.31 0 .73.32 1.37.79 1.73l-.38 2.24v.08l.16 4.01h-4.6v-12.09a.8.8 0 0 1 .24-.57.8.8 0 0 1 .57-.24h21.77a.8.8 0 0 1 .57.24.8.8 0 0 1 .24.57v12.09Z" fill="#000"/><path d="M4.43 14.91h-2.42a.4.4 0 0 0-.28.12.4.4 0 0 0 0 .57c.07.08.17.12.28.12h2.42a.4.4 0 0 0 .29-.12.41.41 0 0 0 .11-.28.44.44 0 0 0-.11-.29.45.45 0 0 0-.29-.12Zm1.61 0h-.4a.4.4 0 0 0-.28.12.4.4 0 0 0 0 .57c.07.08.17.12.28.12h.4a.4.4 0 0 0 .29-.12.42.42 0 0 0 .12-.28.45.45 0 0 0-.12-.29.45.45 0 0 0-.29-.12Zm4.04-7.25a.44.44 0 0 0-.29.11.4.4 0 0 0-.12.29v4.44c0 .1.04.2.12.28a.4.4 0 0 0 .57 0 .4.4 0 0 0 .12-.28v-4.44a.4.4 0 0 0-.12-.29.41.41 0 0 0-.28-.11Zm8.46 3.22c-.1 0-.21.04-.28.12a.4.4 0 0 0-.12.29v1.21c0 .1.04.2.12.28a.4.4 0 0 0 .57 0 .44.44 0 0 0 .12-.28v-1.21a.45.45 0 0 0-.12-.29.4.4 0 0 0-.29-.12Zm-16.53-8.47h3.23c.1 0 .21-.04.28-.11a.4.4 0 0 0 .12-.29.36.36 0 0 0-.12-.28.38.38 0 0 0-.28-.12h-3.23a.36.36 0 0 0-.28.12.36.36 0 0 0-.12.28.4.4 0 0 0 .4.4Zm0 1.21h.81c.1 0 .21-.04.28-.11a.4.4 0 0 0 .12-.29.36.36 0 0 0-.12-.28.38.38 0 0 0-.28-.12h-.81a.36.36 0 0 0-.28.12.36.36 0 0 0-.12.28.4.4 0 0 0 .4.4Zm19.36 9.28h1.61c.11 0 .21-.04.28-.12a.4.4 0 0 0 0-.57.36.36 0 0 0-.28-.12h-1.61a.4.4 0 0 0-.29.12.45.45 0 0 0-.12.29c0 .1.05.2.12.28a.4.4 0 0 0 .29.12Zm1.21-1.21h.4c.11 0 .21-.04.28-.12a.4.4 0 0 0 0-.57.36.36 0 0 0-.28-.12h-.4a.4.4 0 0 0-.29.12.4.4 0 0 0 0 .57.4.4 0 0 0 .29.12Z" fill="#000"/></svg>