<svg viewBox="0 0 25 24" fill="none" xmlns="http://www.w3.org/2000/svg"><path d="M0 0v20.52h8.02v1.46h-1.47v1.47h11.89v-1.47h-1.47v-1.46h8.03v-20.52h-25Zm15.51 21.98h-6.03v-1.46h6.03v1.46Zm8.02-2.93h-22.07v-2.93h22.07v2.93Zm0-4.4h-22.07v-13.19h22.07v13.19Z" fill="#000"/><path d="m9.95 5.41-1.03-1.04-3.69 3.69 3.69 3.68 1.03-1.04-2.64-2.64 2.64-2.65Zm6.12-1.04-1.03 1.04 2.64 2.65-2.64 2.64 1.03 1.04 3.69-3.68-3.69-3.69Z" fill="#000"/><path d="m10.93 12.19 1.7-8.55 1.43.28-1.7 8.55-1.43-.28Z" fill="#000" fill-rule="evenodd"/></svg>