<svg viewBox="0 0 101 100" fill="none" xmlns="http://www.w3.org/2000/svg"><g clip-path="url(#a)"><path fill-rule="evenodd" clip-rule="evenodd" d="M7.53 7.03c-7.03 7.03-7.03 18.34-7.03 40.97v4c0 22.63 0 33.94 7.03 40.97 7.03 7.03 18.34 7.03 40.97 7.03h4c22.63 0 33.94 0 40.97-7.03 7.03-7.03 7.03-18.34 7.03-40.97v-4c0-22.63 0-33.94-7.03-40.97-7.03-7.03-18.34-7.03-40.97-7.03h-4c-22.63 0-33.94 0-40.97 7.03Zm9.85 23.39c.54 26 13.54 41.62 36.33 41.62h1.29v-14.87c8.38.83 14.7 6.96 17.25 14.87h11.83a32.9 32.9 0 0 0-17.12-20.87c5.33-3.09 12.83-10.59 14.62-20.75h-10.75c-2.33 8.25-9.25 15.75-15.83 16.46v-16.46h-10.75v28.83c-6.67-1.67-15.08-9.75-15.46-28.83h-11.41Z" fill="#000"/></g><defs><clipPath id="a"><path fill="#fff" transform="translate(.5)" d="M0 0h100v100h-100z"/></clipPath></defs></svg>