<svg viewBox="0 0 25 24" fill="none" xmlns="http://www.w3.org/2000/svg"><path d="m2.92 14.95-1.86-.41a8.37 8.37 0 0 0-1.06 3.77c0 1.4.49 2.62 1.06 3.76l6.31-1.39v2.75l2.2-1.1 2.19 1.1v-2.75l6.26 1.39a8.42 8.42 0 0 0 1.07-3.76 6 6 0 0 0-.05-.74h5.96v-17.57h-22.08v14.95Zm-1.02 5.44a6.24 6.24 0 0 1-.44-2.08c0-.78.25-1.58.44-2.09l5.47 1.21v1.75l-5.47 1.21Zm8.4.67-.73-.37-.74.37v-3.49h1.47v3.49Zm6.89-.67-5.43-1.21v-1.75l5.43-1.21c.19.51.43 1.31.43 2.09a6.3 6.3 0 0 1-.43 2.08Zm6.34-18.93v14.65h-4.83c-.24-.74-.43-1.08-.68-1.57l-7.07 1.57h-2.77l-3.79-.84v-13.81h19.14Z" fill="#000"/><path d="M8.83 2.92h10.26v1.47h-10.26v-1.47Zm-2.98 5.86h16.22v1.47h-16.22v-1.47Zm2.98 2.93h10.26v1.47h-10.26v-1.47Zm1.47-5.86h1.46v1.47h-1.46v-1.47Zm2.93 0h1.46v1.47h-1.46v-1.47Zm2.93 0h1.46v1.47h-1.46v-1.47Z" fill="#000"/></svg>