<svg viewBox="0 0 25 25" fill="none" xmlns="http://www.w3.org/2000/svg"><defs><clipPath id="a"><path fill="#fff" fill-opacity="0" d="M0 0h25v25h-25z"/></clipPath></defs><path d="M0 0h25v25h-25z"/><g clip-path="url(#a)" fill="#000"><path d="m20.26 19.14-.65.43 1.53 2.3h-17.29l1.82-2.73h9.93v-.79h-10.14a.4.4 0 0 0-.18.05.3.3 0 0 0-.14.13l-2.35 3.51a.43.43 0 0 0-.06.22v1.17c0 .21.08.41.23.55.14.15.34.23.55.23h17.97c.21 0 .41-.08.55-.23a.75.75 0 0 0 .23-.55v-1.17a.43.43 0 0 0-.06-.22l-1.94-2.9Zm-16.75 4.29v-.78h17.97v.78h-17.97Zm16.8-22.65h-15.63c-.31 0-.61.12-.83.34-.21.22-.34.52-.34.83v10.15a1.18 1.18 0 0 0 1.17 1.18h5.47v1.56h-1.56c-.1 0-.2.04-.28.11a.43.43 0 0 0-.11.28v1.56c0 .11.04.2.11.28.08.07.18.11.28.11h7.81c.1 0 .2-.04.28-.11a.41.41 0 0 0 .11-.28v-1.56c0-.1-.04-.2-.11-.28a.43.43 0 0 0-.28-.11h-1.56v-1.56h5.47a1.18 1.18 0 0 0 1.17-1.18v-10.15c0-.31-.13-.61-.34-.83a1.17 1.17 0 0 0-.83-.34Zm-4.3 14.84v.78h-7.03v-.78h7.03Zm-5.08-.78v-1.56h3.13v1.56h-3.13Zm9.77-2.74c0 .11-.04.21-.12.28a.4.4 0 0 1-.27.12h-15.63a.4.4 0 0 1-.27-.12.36.36 0 0 1-.12-.28v-1.17h16.41v1.17Zm0-1.95h-16.41v-8.2c0-.11.04-.2.12-.28a.39.39 0 0 1 .27-.11h15.63c.1 0 .2.04.27.11.08.08.12.17.12.28v8.2Z"/><path d="M18.35 11.32h.79v.78h-.79v-.78Zm-9.37-1.95h1.56c.11 0 .2-.04.28-.11a.43.43 0 0 0 .11-.28v-.39h3.13v.39c0 .1.04.2.11.28.08.07.17.11.28.11h1.56c.1 0 .2-.04.28-.11a.43.43 0 0 0 .11-.28v-1.56a.4.4 0 0 0-.11-.28.43.43 0 0 0-.28-.11h-.39v-2.35h.39c.1 0 .2-.04.28-.11a.41.41 0 0 0 .11-.28v-1.56c0-.1-.04-.2-.11-.28a.43.43 0 0 0-.28-.11h-1.56c-.11 0-.2.04-.28.11a.43.43 0 0 0-.11.28v.39h-3.13v-.39c0-.1-.04-.2-.11-.28a.41.41 0 0 0-.28-.11h-1.56c-.1 0-.2.04-.28.11a.43.43 0 0 0-.11.28v1.56c0 .11.04.2.11.28.08.07.18.11.28.11h.39v2.35h-.39c-.1 0-.2.04-.28.11a.4.4 0 0 0-.11.28v1.56c0 .1.04.2.11.28.08.07.18.11.28.11Zm6.64-.78h-.78v-.78h.78v.78Zm-.78-5.47h.78v.78h-.78v-.78Zm-5.47 0h.78v.78h-.78v-.78Zm.78 1.56h.39c.11 0 .2-.04.28-.11a.41.41 0 0 0 .11-.28v-.39h3.13v.39c0 .11.04.2.11.28.08.07.17.11.28.11h.39v2.35h-.39c-.11 0-.2.04-.28.11a.4.4 0 0 0-.11.28v.39h-3.13v-.39a.4.4 0 0 0-.11-.28.41.41 0 0 0-.28-.11h-.39v-2.35Zm-.78 3.13h.78v.78h-.78v-.78Zm-.39 12.5h5.47v.78h-5.47v-.78Zm14.4-5.92-1.1-1.11a.35.35 0 0 0-.13-.08.4.4 0 0 0-.3 0 .25.25 0 0 0-.12.08l-5.25 5.25a.3.3 0 0 0-.1.15l-.28.83a.37.37 0 0 0 0 .21c.01.07.05.14.1.19l-.55.55.55.55.55-.55a.38.38 0 0 0 .4.1l.83-.28a.38.38 0 0 0 .15-.09l5.25-5.25a.44.44 0 0 0 .12-.28.4.4 0 0 0-.12-.27Zm-5.73 5.18-.51.17-.22-.21.17-.52 3.8-3.8.56.55-3.8 3.81Zm4.35-4.36-.55-.55.55-.55.55.55-.55.55Z"/></g></svg>