<svg viewBox="0 0 25 25" fill="none" xmlns="http://www.w3.org/2000/svg"><defs><clipPath id="a"><path fill="#fff" fill-opacity="0" d="M0 0h25v25h-25z"/></clipPath></defs><path d="M0 0h25v25h-25z"/><g clip-path="url(#a)" fill="#000"><path d="M11.25 3.75h11.25v.83h-11.25v-.83Zm0 1.66h7.08v.84h-7.08v-.84Zm0 1.67h7.08v.83h-7.08v-.83Zm3.33-5h7.91v.83h-7.91v-.83Zm-1.67 0h.84v.83h-.84v-.83Zm-.83 14.58h.83v.84h-.83v-.84Z" fill-rule="evenodd"/><path d="m6.96 2.79-.59-.59-.84.83a.42.42 0 0 0 0 .59l.84.84.59-.59-.54-.54.54-.54Zm3.33.24-.83-.83-.59.59.54.54-.54.54.59.59.83-.84a.42.42 0 0 0 0-.59Z"/><path d="m7.1 4.45.83-2.5.79.26-.83 2.5-.79-.26Z" fill-rule="evenodd"/><path d="M21.66 12.91v-3.33h-.83v3.33h-.83v-4.16h-.84v4.16h-.83v-2.08h-.83v2.08h-.84v-2.5h-.83v2.5h-.83v-1.66h-.84v1.66h-.83v.84h9.17v-.84h-.84Z"/><path d="M22.08 0h-19.17a2.5 2.5 0 0 0-2.5 2.5v14.16a2.5 2.5 0 0 0 2.5 2.5h5.16l-1.67 3.34h-2.24a1.25 1.25 0 0 0 0 2.5h16.67a1.25 1.25 0 0 0 0-2.5h-2.24l-1.67-3.34h5.16a2.5 2.5 0 0 0 2.5-2.5v-14.16a2.5 2.5 0 0 0-2.5-2.5Zm-20.83 5.86.94 1.12c.08.1.2.15.32.15h1.28a.4.4 0 0 0 .32-.15l.94-1.12.94.3.1 1.47c.01.12.07.23.17.31l1.03.75c.1.07.23.09.35.06l1.43-.35.58.79-.78 1.25a.4.4 0 0 0-.04.35l.39 1.22c.04.11.13.21.24.25l1.37.56v.98l-1.37.56a.42.42 0 0 0-.24.25l-.12.39h-2.4c.93-1.96.1-4.3-1.85-5.24a3.94 3.94 0 0 0-3.6.12v-4.02Zm0 5.01a3.1 3.1 0 0 1 4.5 4.13h-4.5v-4.13Zm19.58 12.46a.41.41 0 1 1 0 .83h-16.67a.4.4 0 0 1-.41-.41.4.4 0 0 1 .41-.42h16.67Zm-3.18-.83h-10.31l1.66-3.34h6.99l1.66 3.34Zm6.1-5.84c0 .92-.75 1.67-1.67 1.67h-19.17c-.92 0-1.66-.75-1.66-1.67v-.83h22.5v.83Zm0-1.66h-13.65l1.3-.53a.42.42 0 0 0 .26-.39v-1.54c0-.17-.1-.33-.26-.39l-1.45-.59-.27-.84.83-1.32a.44.44 0 0 0-.02-.47l-.91-1.25a.41.41 0 0 0-.44-.16l-1.51.38-.72-.52-.11-1.56a.42.42 0 0 0-.28-.37l-1.47-.47a.42.42 0 0 0-.45.13l-1 1.19h-.89l-1.01-1.19a.41.41 0 0 0-.44-.13h-.01v-2.48c0-.93.74-1.67 1.66-1.67h19.17c.92 0 1.67.74 1.67 1.67v12.5Z"/></g></svg>