<svg viewBox="0 0 20 25" fill="none" xmlns="http://www.w3.org/2000/svg"><path d="m16.71 16.33-1.47-.43-3.19-2.09v-.48a4.22 4.22 0 0 0 1.68-2.98.98.98 0 0 0 .82-.96v-2.99c.18-.14.3-.35.3-.59v-1.53l2.2-.37a.78.78 0 0 0 .65-.72.78.78 0 0 0-.54-.8l-7.43-2.36a.76.76 0 0 0-.47 0l-7.43 2.36a.78.78 0 0 0-.54.8c.01.24.13.44.3.57v1.99h-.02a.76.76 0 0 0-.76.76v.99l-.49 2.87c-.08.5.3.95.8.95h1.66c.51 0 .89-.45.81-.95l-.49-2.87v-.99a.76.76 0 0 0-.76-.76h-.02v-1.78l1.82.31v1.53c0 .24.12.45.3.58v3c0 .48.36.89.82.96a4.22 4.22 0 0 0 1.68 2.98v.48l-3.2 2.09-1.46.43a3.72 3.72 0 0 0-2.68 3.57v1.09c0 .21.17.37.37.37.2 0 .36-.16.36-.37v-1.09c0-1.32.89-2.5 2.15-2.87l1.37-.4 5.46 3.24c.11.07.26.07.37 0l5.46-3.24 1.37.4a3.01 3.01 0 0 1 2.15 2.87v3.54c0 .45-.37.82-.83.82h-1.61v-1.58c0-.2-.16-.36-.37-.36-.2 0-.36.16-.36.36v1.58h-11.99v-1.58c0-.2-.16-.36-.36-.36a.36.36 0 0 0-.37.36v1.58h-1.61a.83.83 0 0 1-.83-.82v-.73a.36.36 0 0 0-.36-.37c-.2 0-.37.16-.37.37v.73c0 .86.7 1.56 1.56 1.56h16.67c.86 0 1.56-.7 1.56-1.56v-3.54c0-1.63-1.07-3.1-2.68-3.57Zm-13.93-5.74h-1.66a.08.08 0 0 1-.08-.1l.45-2.6h.93l.44 2.6c.01.05-.03.1-.08.1Zm-.42-4.08v.65h-.82v-.65c0-.02.01-.03.03-.03h.77c.01 0 .02.01.02.03Zm5.83 11.71.14.22-3.74-2.22 2.38-1.55c.1 1.26.52 2.48 1.22 3.55Zm-.01-1.58c.86.12 1.76.12 2.63 0a7 7 0 0 1-.62 1.18l-.69 1.07-.7-1.07a7 7 0 0 1-.62-1.18Zm2.62 1.58a7.58 7.58 0 0 0 1.22-3.55l2.38 1.55-3.74 2.22.14-.22Zm2.15-11.69h.86v1.18h-.43a.44.44 0 0 1-.43-.44v-.74Zm-10.9-3.44 7.43-2.36h.03l7.43 2.36c.01.01.03.01.03.05s-.02.04-.04.05l-2.46.41-.92-.11a.38.38 0 0 0-.41.32c-.02.2.12.38.32.41l.66.08v1.5h-9.25v-1.5l3.79-.47a6.67 6.67 0 0 1 1.67 0l1.43.18c.2.02.38-.12.41-.32.02-.2-.12-.39-.32-.41l-1.43-.18a8.17 8.17 0 0 0-1.85 0l-4.05.5-2.46-.41c-.02-.01-.04-.01-.04-.05s.02-.04.03-.05Zm3.12 4.62v-1.18h.87v.74c0 .24-.19.44-.43.44h-.44Zm.81 2.45a.57.57 0 0 0-.56-.53.25.25 0 0 1-.25-.24v-.95h.44c.64 0 1.17-.52 1.17-1.17v-.74h5.43v.74c0 .65.53 1.17 1.17 1.17h.44v.95c0 .13-.11.24-.25.24a.57.57 0 0 0-.56.53 3.53 3.53 0 0 1-7.03 0Zm3.52 4.03c.65 0 1.27-.15 1.82-.41v.23a6.7 6.7 0 0 1-.25 1.84c-.99.19-2.12.2-3.15 0a6.7 6.7 0 0 1-.25-1.84v-.23c.55.26 1.17.41 1.83.41Z" fill="#000"/></svg>