<svg viewBox="0 0 47 65" fill="none" xmlns="http://www.w3.org/2000/svg"><path d="m22.97 65-18.79-5.23-4.18-47h46l-4.2 47-18.83 5.23Z" fill="#4353AD"/><path d="m38.22 56.77 3.58-40.16h-18.81v44.39l15.23-4.23Z" fill="#485FB5"/><path d="m23 49.02-.03.01-6.41-1.74-.41-4.6h-5.78l.8 9.06 11.8 3.27h.03v-6Zm-14.45-26.64.53 5.76h13.92v-5.76h-14.45Zm1.04 11.67.52 5.76h12.89v-5.76h-13.41Z" fill="#EDEDED"/><path d="M27.56 0h6.98v2.53h-4.06v.51h4.06v5.84h-6.98v-2.66h4.06v-.51h-4.06v-5.71Zm-8.37 0h6.98v2.53h-4.06v.51h4.06v5.84h-6.98v-2.66h4.06v-.51h-4.06v-5.71Zm-8.37 0h6.98v2.91h-4.06v2.93h4.06v2.92h-6.98v-8.76Z" fill="#100F0D"/><path d="m36.36 34.05 1.04-11.67h-14.42v5.76h8.11l-.52 5.91h-7.59v5.76h7.09l-.67 7.48-6.42 1.73v6l11.8-3.27.09-.98 1.35-15.18.14-1.54Z" fill="#FFF"/></svg>