<svg viewBox="0 0 46 65" fill="none" xmlns="http://www.w3.org/2000/svg"><path d="m4.16 59.77-4.16-47h45.77l-4.17 47-18.75 5.23-18.69-5.23Z" fill="#E53D20"/><path d="m22.88 61 15.15-4.23 3.56-40.16h-18.71v44.39Z" fill="#F15123"/><path d="M22.88 34.05h-7.58l-.52-5.91h8.1v-5.76h-14.37l.14 1.54 1.41 15.89h12.82v-5.76Zm0 14.97-.02.01-6.38-1.74-.41-4.6h-5.76l.81 9.06 11.74 3.27h.02v-6Z" fill="#EDEDED"/><path d="M4.25 0h2.92v2.89h2.66v-2.89h2.91v8.76h-2.91v-2.93h-2.66v2.93h-2.92v-8.76Zm12.32 2.9h-2.56v-2.9h8.04v2.9h-2.57v5.86h-2.91v-5.86Zm6.76-2.9h3.03l1.87 3.07 1.87-3.07h3.03v8.76h-2.9v-4.34l-2 3.11h-.05l-2.01-3.11v4.34h-2.84v-8.76Zm11.25 0h2.92v5.86h4.09v2.9h-7.01v-8.76Z" fill="#100F0D"/><path d="M22.86 34.05v5.76h7.06l-.67 7.48-6.39 1.73v6l11.75-3.27.09-.98 1.34-15.18.14-1.54h-13.32Zm0-11.67v5.76h13.84l.12-1.29.26-2.93.14-1.54h-14.36Z" fill="#FFF"/></svg>