<svg viewBox="0 0 162 37" fill="none" xmlns="http://www.w3.org/2000/svg"><path d="m154.37 2.7 6.76.04-13.6 18.43c-.34.45-.84.94-1.1 1.54a34.38 34.38 0 0 0-1.32 4.83l-6.19.03s.97-3.46.93-5.3c-.04-1.61-.86-3.21-1.32-4.83a79.36 79.36 0 0 1-1.1-4.83h6.37l.87 3.52 9.7-13.43Z" fill="#1A1918" fill-rule="evenodd"/><path d="M141.56 6.3c1.25.75 2.01 4.9 2.01 4.9s-6.53.1-10.09.1h-3.07l-3.73 16.24h-5.71s3.55-17.65 4.39-20.85c.28-1.04 1.86-.86 4.55-.86h4.28c2.77 0 6.01-.35 7.37.47Zm-26.57 7.91s.18-1.05-.6-2.25c-.67-1.03-1.28-1.27-3.04-1.33-4.96-.15-4.86 3.52-4.86 3.52l8.5.06Zm5.38-4.21c.73 2.62-.66 8.78-.66 8.78s-7.23-.12-11.19 0c-1.23.03-2.71-.14-3.07.44-.52.8.19 2.03.78 2.56.69.6 2.03.67 2.51.73 3.21.41 9.94.1 9.94.1l-1.16 5.16s-9.51.48-14.27-.65a4.86 4.86 0 0 1-2.41-1.32c-.16-.18-.3-.42-.46-.62a6.06 6.06 0 0 1-.64-1.14c-1.09-2.89.13-8.44 1.32-11.41.14-.34.31-.78.49-1.15.23-.46.42-.99.61-1.26.12-.19.27-.32.4-.5.14-.21.32-.41.47-.6.44-.51.94-.87 1.54-1.32 1.98-1.48 5.57-2.63 9.88-2.19 1.62.17 4.07.75 5.26 2.41.32.45.48 1.33.66 1.98Zm-26.17-4.19 5.53-.03s-3.08 14.62-4.65 21.76h-6.37c-4.44 0-8.41.55-10.09-2.64-1.64-3.09-.08-8.17.66-11.63.51-2.44 1.61-7.44 1.61-7.44l5.73-.05s-1.62 7.78-2.3 11.66c-.24 1.39-.73 2.7-.21 3.73.49.98 1.18 1.05 3.29 1.1.66.02 2.85 0 2.85 0l3.95-16.46Zm-25.9 10.53c.58-2.05 1.43-4.29 1.32-6.14-.12-1.98-1.78-3.79-2.85-4.17a7.3 7.3 0 0 0-7.46 1.76c-1.56 1.68-2.09 3.65-2.64 6.36-.41 2.01-.74 4.14 0 5.71 1.32 2.77 5.44 2.16 9.88 2.19.66-1.76 1.2-3.75 1.75-5.71Zm7.69-8.12c.63 4.6-1.8 9.67-3.47 14.08 1.71.16 3.2-.02 3.31.11.11.16-1.15 5.26-1.58 5.27-1.35.04-5.83.08-7.7.08-6.1 0-11.8.39-14.7-2.64a9.5 9.5 0 0 1-2.2-4.82c-.33-2.48.08-5.21.66-7.47a22.76 22.76 0 0 1 2.19-5.7c2.56-4.47 7.02-7.79 14.49-7.02 1.45.14 3.53.78 4.83 1.53.09.05.4.3.47.35 1.76 1.12 3.36 3.78 3.7 6.23Zm-26.97-2.38c-.37 1.68-.74 3.58-1.13 5.24h-6.14c.48-1.84.84-3.67 1.32-5.27 1.96 0 3.79.03 5.95.03Zm-7.49 6.77h5.93a290.63 290.63 0 0 1-3.52 16.02c-.75 3.02-1.25 5.22-3.29 6.81-.18.14-.28.07-.44.22-.37.36-2.11.77-3.07.88-1.56.16-3.33.02-5.25-.02l1.52-5.69c4.68.57 4.8-3.86 5.71-8.12.52-2.46 2.11-9.11 2.41-10.1Z" fill="#1A1918" fill-rule="evenodd"/><path d="m27.7 23.81-.12.33c-2.17 4.21-6 6.79-11.47 6.91-2.56.05-4.99-.6-6.58-1.32a16.91 16.91 0 0 1-7.9-7.46c-2.27-4.38-2.67-10.48 2.03-15.03.07 0-.57.99-.5.99l-.13.42c-3.39 10.61 7.06 19.71 17.21 18.67a13.34 13.34 0 0 0 7.46-3.51Z" fill="#21609B" fill-rule="evenodd"/><path d="M21.56 19.42a9.74 9.74 0 0 0 6.8-2.86c-1.38 3.51-5.38 5.77-10.75 5.05-4.49-.6-8.78-5.12-9.22-9.65-.32-3.3.83-5.27 2.72-7.66a8.1 8.1 0 0 0-.96 2.83c-.72 7.13 5.7 12.25 11.41 12.29Z" fill="#21609B" fill-rule="evenodd"/><path d="M28.11 10.56c-.4.91-2.69 2.63-3.7 2.84-4 .85-6.56-1.04-7.9-3.2-.2-.32-.57-1.2-.63-1.43-.52-1.76-.28-4.44 1.27-5.82a7.21 7.21 0 0 0-.29 3.84c.15.6.6 1.65 1.06 2.31.82 1.2 1.35 1.49 2.41 2.13.48.29.99.52 1.21.58 1.01.3 3.14 1.08 6.57-1.25Z" fill="#21609B" fill-rule="evenodd"/></svg>