<svg viewBox="0 0 65 65" fill="none" xmlns="http://www.w3.org/2000/svg"><path d="M0 0h65v65h-65v-65Z" fill="#F7DF1E"/><path d="m17.09 54.31 4.97-3.01c.96 1.71 1.83 3.14 3.93 3.14 2 0 3.27-.78 3.27-3.83v-20.77h6.11v20.85c0 6.33-3.71 9.21-9.12 9.21-4.89 0-7.72-2.53-9.16-5.59Zm21.6-.65 4.97-2.88c1.31 2.14 3.01 3.71 6.02 3.71 2.53 0 4.15-1.27 4.15-3.01 0-2.1-1.66-2.84-4.46-4.06l-1.52-.65c-4.41-1.88-7.33-4.24-7.33-9.21 0-4.58 3.49-8.07 8.94-8.07 3.89 0 6.68 1.35 8.69 4.88l-4.76 3.06c-1.05-1.88-2.18-2.62-3.93-2.62-1.79 0-2.92 1.13-2.92 2.62 0 1.83 1.13 2.57 3.75 3.71l1.53.65c5.19 2.23 8.11 4.5 8.11 9.6 0 5.5-4.32 8.51-10.12 8.51-5.67 0-9.34-2.71-11.12-6.24Z" fill="#000"/></svg>