<svg viewBox="0 0 160 45" fill="none" xmlns="http://www.w3.org/2000/svg"><path d="M148.97 18.57c-.15.03-.29.34-.29.51-.03 1.14-.06 4.15-.06 6.2 0 .06.09.17.18.17.43.03 1.47.06 2.36.06 1.24 0 1.96-.17 2.36-.34 1.04-.51 1.53-1.62 1.53-2.85 0-2.76-1.96-3.81-4.87-3.81-.2-.03-.78-.03-1.21.06Zm7.44 12.71c0-2.81-2.11-4.38-5.91-4.38-.18 0-1.39-.03-1.68.03-.08.03-.2.09-.2.17 0 2.02-.03 5.23.06 6.49.06.54.46 1.3.95 1.53.52.29 1.7.34 2.51.34 2.28 0 4.27-1.25 4.27-4.18Zm-13.32-14.28c.28 0 1.15.09 3.37.09 2.1 0 3.78-.06 5.82-.06 2.51 0 5.97.88 5.97 4.58 0 1.82-1.29 3.27-3 3.98-.08.03-.08.09 0 .12 2.43.59 4.56 2.07 4.56 4.86 0 2.73-1.73 4.47-4.24 5.55-1.53.65-3.43.88-5.36.88-1.47 0-5.42-.17-7.61-.11-.24-.09.2-1.11.4-1.28.52-.03.92-.06 1.47-.23.78-.2.86-.43.98-1.59.06-1 .06-4.53.06-7.03 0-3.44.03-5.77 0-6.91-.03-.88-.35-1.17-.98-1.34-.49-.08-1.3-.2-1.96-.28-.15-.15.34-1.11.52-1.23Zm-16.64 17.7c.69.54 2.04.76 3.25.76 1.56 0 3.12-.28 4.62-1.62 1.53-1.36 2.59-3.47 2.59-6.82 0-3.22-1.24-5.84-3.77-7.37-1.45-.88-3.29-1.25-5.43-1.25-.63 0-1.24.03-1.61.2-.09.05-.29.31-.29.45-.06.57-.06 4.95-.06 7.51 0 2.65 0 6.34.06 6.77 0 .43.2 1.08.64 1.37Zm-6.55-17.7c.55 0 2.65.09 3.66.09 1.82 0 3.12-.09 6.55-.09 2.88 0 5.3.77 7.03 2.22a9.16 9.16 0 0 1 3.21 7.28c0 4.3-1.99 6.77-3.98 8.2-1.99 1.45-4.59 2.3-8.28 2.3-1.96 0-5.34-.06-8.13-.09h-.03c-.15-.25.23-1.25.46-1.28.75-.08.95-.11 1.33-.25.6-.23.72-.54.8-1.59.09-1.97.06-4.33.06-7 0-1.91.03-5.63-.03-6.83-.08-.99-.52-1.25-1.38-1.42-.43-.09-1.01-.2-1.82-.28-.11-.2.41-1.09.55-1.26Z" fill="#8E714E" fill-rule="evenodd"/><path d="M85.01 35.8a5.6 5.6 0 0 1-1.88-.48.85.85 0 0 1-.23-.45c-.06-1-.06-3.84-.06-5.75 0-1.54-.26-2.87-.92-3.81a3.96 3.96 0 0 0-3.35-1.71c-1.26 0-2.97.86-4.38 2.05-.03.03-.26.23-.23-.08 0-.32.06-.94.09-1.37.03-.4-.2-.6-.2-.6-.93.46-3.52 1.06-4.48 1.14-.69.14-.86.8-.14 1.02h.03c.78.23 1.3.49 1.7.74.29.23.26.54.26.8.03 2.13.03 5.4-.06 7.2-.03.71-.23.96-.75 1.08l.06-.03c-.4.08-.72.17-1.21.23-.17.17-.17 1.08 0 1.28.32 0 1.99-.09 3.37-.09 1.91 0 2.89.09 3.38.09.2-.23.26-1.08.14-1.28a5.57 5.57 0 0 1-1.32-.2c-.52-.12-.67-.37-.7-.97-.05-1.51-.05-4.69-.05-6.85 0-.6.17-.89.34-1.06a4.38 4.38 0 0 1 2.68-.96c.93 0 1.53.28 1.99.65.64.51.84 1.25.93 1.79.14 1.23.08 3.64.08 5.75 0 1.14-.08 1.42-.52 1.56-.2.09-.72.2-1.32.26-.2.2-.15 1.08 0 1.28.83 0 1.81-.09 3.26-.09 1.78 0 2.94.09 3.4.09.14-.17.2-1 .09-1.23Zm7.98-10.86c-1.52 0-2.48 1.17-2.48 2.99 0 1.84.84 3.98 3.2 3.98.41 0 1.16-.17 1.5-.57.55-.51.93-1.54.93-2.62 0-2.36-1.19-3.78-3.15-3.78Zm-.2 12.57c-.58 0-.98.17-1.24.31-1.21.77-1.76 1.51-1.76 2.39 0 .83.32 1.48 1.01 2.05a5.18 5.18 0 0 0 3.46 1.05c2.94 0 4.24-1.56 4.24-3.1 0-1.08-.55-1.79-1.67-2.19-.81-.34-2.28-.51-4.04-.51Zm.2 7.4a6.4 6.4 0 0 1-4.12-1.2 3.71 3.71 0 0 1-1.53-2.81c0-.23.06-.86.58-1.43.32-.34 1.01-.99 2.65-2.1.06-.03.09-.06.09-.11 0-.06-.06-.12-.12-.15-1.35-.51-1.76-1.33-1.87-1.79v-.06c-.03-.17-.09-.34.17-.51.2-.14.49-.31.81-.51.49-.28 1.01-.6 1.32-.85.06-.06.06-.12.06-.17 0-.06-.06-.12-.11-.15-2.02-.65-3.03-2.13-3.03-4.35 0-1.45.66-2.76 1.84-3.58a8.53 8.53 0 0 1 4.16-1.39h.08c1.36.02 2.11.31 3.18.68.57.2 1.12.28 1.87.28 1.13 0 1.62-.34 2.02-.74.03.06.09.2.12.57.02.37-.09.91-.38 1.31-.23.31-.75.54-1.27.54h-.14a8.72 8.72 0 0 1-.75-.11l-.12.05c-.03.06 0 .12.03.2l.03.06c.06.26.17 1.02.17 1.22 0 2.33-.95 3.36-1.96 4.13a6.74 6.74 0 0 1-3.37 1.28c-.03 0-.15 0-.41.03l-.37.02h-.03c-.23.06-.81.34-.81.83 0 .42.26.94 1.5 1.02.26.03.52.03.81.06 1.64.11 3.69.26 4.64.57a3.19 3.19 0 0 1 2.17 3.04c0 2.11-1.53 4.07-4.07 5.29a9.4 9.4 0 0 1-3.84.83Zm16.44-19.83c-.6 0-1.15.14-1.56.43-1.12.68-1.7 2.05-1.7 4.04 0 3.72 1.91 6.34 4.62 6.34a3 3 0 0 0 1.99-.68c.83-.69 1.27-2.05 1.27-3.96 0-3.69-1.88-6.17-4.62-6.17Zm.52 12.18c-4.9 0-6.66-3.56-6.66-6.89 0-2.33.95-4.12 2.85-5.4a8.73 8.73 0 0 1 4.42-1.28c3.75 0 6.37 2.64 6.37 6.45 0 2.59-1.04 4.64-3.03 5.89a8.01 8.01 0 0 1-3.95 1.23Zm-51.39-12.18c-.6 0-1.15.14-1.56.43-1.12.68-1.7 2.05-1.7 4.04 0 3.72 1.91 6.34 4.62 6.34a3 3 0 0 0 1.99-.68c.83-.69 1.26-2.05 1.26-3.96 0-3.69-1.84-6.17-4.61-6.17Zm.52 12.18c-4.9 0-6.66-3.56-6.66-6.89 0-2.33.95-4.12 2.85-5.4a8.73 8.73 0 0 1 4.42-1.28c3.74 0 6.37 2.64 6.37 6.45 0 2.59-1.04 4.64-3.03 5.89a7.85 7.85 0 0 1-3.95 1.23Zm-32.96-.29c-.06-.08-.12-.34-.09-.65 0-.23.06-.37.09-.43.6-.09.92-.17 1.27-.26.57-.14.8-.45.83-1.16.09-1.71.09-4.95.06-7.2v-.05c0-.26 0-.57-.32-.8a6.37 6.37 0 0 0-1.73-.74c-.26-.09-.43-.23-.4-.4 0-.17.17-.37.55-.43a21.4 21.4 0 0 0 4.41-1.1c.06.05.14.22.14.45l-.02.31c-.03.32-.06.69-.06 1.06 0 .11.11.19.23.19.06 0 .11-.02.17-.05 1.85-1.42 3.52-1.94 4.38-1.94 1.42 0 2.51.66 3.35 2.02.06.09.11.12.2.12.06 0 .15-.03.17-.09 1.71-1.28 3.41-2.05 4.53-2.05 2.68 0 4.27 1.97 4.27 5.29 0 .94 0 2.17-.03 3.27 0 1-.03 1.91-.03 2.56 0 .15.2.6.52.69.41.2.95.28 1.67.4h.03c.06.19-.05.93-.17 1.08-.17 0-.43 0-.72-.03a51.12 51.12 0 0 0-5.8.03 3.01 3.01 0 0 1 0-1.08c.52-.09.78-.18 1.1-.26.58-.17.72-.43.75-1.17 0-.54.11-5.14-.06-6.25a2.83 2.83 0 0 0-2.94-2.48c-.72 0-1.85.29-2.94 1.11a.5.5 0 0 0-.12.29v.02c.12.6.12 1.28.12 2.34v1.84c0 1.28-.03 2.48 0 3.39 0 .63.37.77.69.88l.43.09.93.2c.05.11.05.48-.03.79a.57.57 0 0 1-.12.29c-.98-.03-1.99-.06-3.46-.06-.43 0-1.18.03-1.82.03-.52 0-1.01.03-1.29.03a1.47 1.47 0 0 1-.09-.57c0-.26.06-.46.11-.51.15-.03.26-.06.41-.06l.92-.17c.49-.14.66-.4.69-1.03.09-1.42.18-5.49-.03-6.51-.34-1.65-1.29-2.47-2.82-2.47-.9 0-2.02.42-2.94 1.11-.15.11-.26.39-.26.65v1.68c0 2.05 0 4.61.03 5.71.03.35.14.74.8.89.15.02.38.08.67.11l.52.09c.05.17.03.85-.09 1.08-.29 0-.63-.03-1.04-.03a45.05 45.05 0 0 0-4.56 0c-.4-.06-.72-.06-1.06-.06Z" fill="#442D22" fill-rule="evenodd"/><path d="m10.95 43.8-1.18-.4s.14-5.95-2.02-6.37c-1.44-1.65.23-69.97 5.42-.23 0 0-1.79.88-2.11 2.39-.34 1.48-.11 4.61-.11 4.61Z" fill="#FFF" fill-rule="evenodd"/><path d="m10.95 43.8-1.18-.4s.14-5.95-2.02-6.37c-1.44-1.65.23-69.97 5.42-.23 0 0-1.79.88-2.11 2.39-.34 1.48-.11 4.61-.11 4.61Z" fill="#A6A385" fill-rule="evenodd"/><path d="M11.58 38.05s10.36-6.71 7.93-20.68c-2.33-10.15-7.84-13.48-8.45-14.76-.66-.91-1.29-2.5-1.29-2.5l.43 28.24c0 .03-.89 8.65 1.38 9.7Z" fill="#FFF" fill-rule="evenodd"/><path d="M11.58 38.05s10.36-6.71 7.93-20.68c-2.33-10.15-7.84-13.48-8.45-14.76-.66-.91-1.29-2.5-1.29-2.5l.43 28.24c0 .03-.89 8.65 1.38 9.7Z" fill="#499D4A" fill-rule="evenodd"/><path d="M9.16 38.42s-9.72-6.54-9.14-18.06c.55-11.52 7.41-17.18 8.74-18.2.86-.91.89-1.25.95-2.16.6 1.28.49 19.14.58 21.24.26 8.11-.47 15.65-1.13 17.18Z" fill="#FFF" fill-rule="evenodd"/><path d="M9.16 38.42s-9.72-6.54-9.14-18.06c.55-11.52 7.41-17.18 8.74-18.2.86-.91.89-1.25.95-2.16.6 1.28.49 19.14.58 21.24.26 8.11-.47 15.65-1.13 17.18Z" fill="#58AA50" fill-rule="evenodd"/></svg>