<svg viewBox="0 0 104 65" fill="none" xmlns="http://www.w3.org/2000/svg"><defs><linearGradient id="b" x1="42.375" y1="19.311" x2="33.439" y2="37.889" gradientUnits="userSpaceOnUse"><stop stop-color="#41873F"/><stop offset=".329" stop-color="#418B3D"/><stop offset=".635" stop-color="#419637"/><stop offset=".932" stop-color="#3FA92D"/><stop offset="1" stop-color="#3FAE2A"/></linearGradient><linearGradient id="c" x1="36.848" y1="29.033" x2="61.922" y2="10.153" gradientUnits="userSpaceOnUse"><stop offset=".138" stop-color="#41873F"/><stop offset=".403" stop-color="#54A044"/><stop offset=".714" stop-color="#66B848"/><stop offset=".908" stop-color="#6CC04A"/></linearGradient><linearGradient id="d" x1="28.991" y1="12.857" x2="47.287" y2="12.857" gradientUnits="userSpaceOnUse"><stop offset=".092" stop-color="#6CC04A"/><stop offset=".286" stop-color="#66B848"/><stop offset=".597" stop-color="#54A044"/><stop offset=".862" stop-color="#41873F"/></linearGradient><linearGradient id="e" x1="26.918" y1="27.669" x2="49.788" y2="27.669" gradientUnits="userSpaceOnUse"><stop offset=".092" stop-color="#6CC04A"/><stop offset=".286" stop-color="#66B848"/><stop offset=".597" stop-color="#54A044"/><stop offset=".862" stop-color="#41873F"/></linearGradient><linearGradient id="f" x1="42.881" y1="34.297" x2="49.742" y2="34.297" gradientUnits="userSpaceOnUse"><stop offset=".092" stop-color="#6CC04A"/><stop offset=".286" stop-color="#66B848"/><stop offset=".597" stop-color="#54A044"/><stop offset=".862" stop-color="#41873F"/></linearGradient><linearGradient id="g" x1="26.918" y1="37.33" x2="49.788" y2="37.33" gradientUnits="userSpaceOnUse"><stop offset=".092" stop-color="#6CC04A"/><stop offset=".286" stop-color="#66B848"/><stop offset=".597" stop-color="#54A044"/><stop offset=".862" stop-color="#41873F"/></linearGradient><linearGradient id="h" x1="53.12" y1="18.76" x2="39.016" y2="48.083" gradientUnits="userSpaceOnUse"><stop stop-color="#41873F"/><stop offset=".329" stop-color="#418B3D"/><stop offset=".635" stop-color="#419637"/><stop offset=".932" stop-color="#3FA92D"/><stop offset="1" stop-color="#3FAE2A"/></linearGradient></defs><path d="M51.36 64.81c-.35 0-.68-.1-.98-.27l-3.13-1.89c-.47-.26-.23-.35-.09-.4.63-.22.75-.27 1.41-.65.07-.05.16-.02.23.03l2.4 1.45c.09.05.21.05.28 0l9.37-5.52a.29.29 0 0 0 .14-.26v-11.03c0-.12-.05-.22-.14-.27l-9.37-5.5c-.1-.05-.21-.05-.28 0l-9.37 5.5c-.09.05-.14.17-.14.27v11.03c0 .09.05.21.14.26l2.56 1.51c1.38.71 2.25-.12 2.25-.96v-10.89c0-.14.12-.28.28-.28h1.2c.14 0 .28.12.28.28v10.89c0 1.89-1.01 2.99-2.77 2.99-.54 0-.96 0-2.16-.6l-2.46-1.43a2.04 2.04 0 0 1-.99-1.75v-11.03c0-.72.38-1.39.99-1.75l9.37-5.52a2.03 2.03 0 0 1 1.97 0l9.36 5.52c.61.36.99 1.03.99 1.75v11.03c0 .72-.38 1.39-.99 1.75l-9.36 5.52a2.3 2.3 0 0 1-.99.22Zm2.89-7.59c-4.11 0-4.95-1.91-4.95-3.54 0-.14.11-.28.28-.28h1.22c.14 0 .26.09.26.23.18 1.27.72 1.89 3.21 1.89 1.97 0 2.82-.45 2.82-1.53 0-.62-.24-1.07-3.31-1.38-2.56-.27-4.16-.84-4.16-2.92 0-1.94 1.6-3.09 4.28-3.09 3 0 4.48 1.05 4.67 3.35 0 .07-.03.14-.07.22-.05.04-.12.09-.19.09h-1.22c-.12 0-.24-.09-.26-.21-.28-1.32-1.01-1.75-2.93-1.75-2.16 0-2.42.76-2.42 1.34 0 .69.3.91 3.21 1.29 2.89.38 4.25.93 4.25 2.99-.02 2.11-1.71 3.3-4.69 3.3Z" fill="#539E43"/><path d="M22.3 21.67c0-.43-.24-.84-.61-1.05l-9.96-5.84c-.16-.1-.35-.14-.54-.17h-.09c-.19 0-.38.07-.54.17l-9.95 5.84a1.2 1.2 0 0 0-.61 1.05l.02 15.7c0 .21.12.43.3.52.19.12.43.12.59 0l5.92-3.44c.37-.22.61-.63.61-1.06v-7.34c0-.43.23-.84.61-1.05l2.51-1.49c.19-.12.4-.16.61-.16.21 0 .42.04.59.16l2.51 1.49c.37.21.61.62.61 1.05v7.34c0 .43.23.84.61 1.06l5.92 3.44c.18.12.42.12.61 0a.6.6 0 0 0 .3-.52l-.02-15.7Zm47.84-21.6a.6.6 0 0 0-.58 0 .62.62 0 0 0-.31.52v15.55c0 .15-.07.29-.21.39a.45.45 0 0 1-.42 0l-2.49-1.46a1.17 1.17 0 0 0-1.2 0l-9.95 5.86a1.2 1.2 0 0 0-.61 1.05v11.7c0 .43.23.84.61 1.05l9.95 5.87c.38.21.82.21 1.2 0l9.95-5.87c.38-.21.61-.62.61-1.05v-29.16c0-.46-.23-.86-.61-1.08l-5.94-3.37Zm-.91 29.76c0 .12-.05.21-.14.26l-3.41 2.01a.32.32 0 0 1-.3 0l-3.41-2.01c-.09-.05-.14-.17-.14-.26v-4.02c0-.12.05-.22.14-.26l3.41-2.01a.32.32 0 0 1 .3 0l3.41 2.01c.09.04.14.16.14.26v4.02Zm34.04-4.12c.37-.21.58-.62.58-1.05v-2.85c0-.43-.23-.83-.58-1.05l-9.89-5.84a1.2 1.2 0 0 0-1.19 0l-9.96 5.87c-.37.21-.61.62-.61 1.05v11.7c0 .43.24.84.61 1.05l9.89 5.74c.37.22.82.22 1.17 0l5.99-3.4a.6.6 0 0 0 .3-.52.61.61 0 0 0-.3-.53l-10-5.86a.63.63 0 0 1-.31-.53v-3.66c0-.21.12-.43.31-.52l3.12-1.82a.56.56 0 0 1 .61 0l3.12 1.82c.19.12.31.31.31.52v2.87c0 .22.11.44.3.53.19.12.42.12.61 0l5.92-3.52Z" fill="#333"/><path d="M92.63 25.16a.26.26 0 0 1 .24 0l1.9 1.13c.07.05.12.12.12.21v2.25c0 .1-.05.17-.12.22l-1.9 1.12a.21.21 0 0 1-.24 0l-1.9-1.12a.26.26 0 0 1-.12-.22v-2.25c0-.09.05-.16.12-.21l1.9-1.13Z" fill="#539E43"/><mask id="a" mask-type="alpha" maskUnits="userSpaceOnUse" x="27.279" y="14.815" width="22.138" height="25.707"><path d="M38.94 14.97a1.22 1.22 0 0 0-1.2 0l-9.88 5.82a1.2 1.2 0 0 0-.59 1.05v11.65c0 .43.24.84.59 1.05l9.88 5.82c.38.21.83.21 1.2 0l9.89-5.82c.37-.21.58-.62.58-1.05v-11.65c0-.43-.23-.84-.58-1.05l-9.89-5.82Z" fill="#FFF"/></mask><g mask="url(#a)"><path d="M38.94 14.97a1.22 1.22 0 0 0-1.2 0l-9.88 5.82a1.2 1.2 0 0 0-.59 1.05v11.65c0 .43.24.84.59 1.05l9.88 5.82c.38.21.83.21 1.2 0l9.89-5.82c.37-.21.58-.62.58-1.05v-11.65c0-.43-.23-.84-.58-1.05l-9.89-5.82Z" fill="url(#b)"/></g><g mask="url(#a)"><path d="m48.85 20.79-9.93-5.82c-.1-.05-.21-.09-.31-.12l-11.12 19.43c.09.12.21.21.32.29l9.93 5.81c.29.17.62.21.92.12l10.45-19.48c-.07-.09-.17-.16-.26-.23Z" fill="url(#c)"/></g><g mask="url(#a)" fill-rule="evenodd"><path d="m37.42 12.84-.14.07h.18l-.04-.07Z" fill="url(#d)"/><path d="M48.87 34.54c.28-.17.5-.45.59-.76l-10.89-18.95a1.16 1.16 0 0 0-.85.14l-9.86 5.79 10.64 19.76c.14-.02.3-.07.44-.14l9.93-5.84Z" fill="url(#e)"/><path d="m49.79 34.35-.07-.12v.17l.07-.05Z" fill="url(#f)"/><path d="m48.87 34.54-9.9 5.82c-.15.07-.29.12-.45.14l.19.36 10.98-6.49v-.14l-.28-.48a1.1 1.1 0 0 1-.54.79Z" fill="url(#g)"/><path d="m48.87 34.54-9.9 5.82c-.15.07-.29.12-.45.14l.19.36 10.98-6.49v-.14l-.28-.48a1.1 1.1 0 0 1-.54.79Z" fill="url(#h)"/></g></svg>