<svg viewBox="0 0 71 64" fill="none" xmlns="http://www.w3.org/2000/svg"><path d="M-.79 31.42c0 5.43 5.27 10.5 13.59 13.36-1.66 8.41-.29 15.18 4.26 17.82 4.68 2.71 11.66.83 18.28-4.98 6.45 5.58 12.97 7.77 17.52 5.13 4.68-2.72 6.1-9.96 4.39-18.62 8.67-2.88 13.52-7.2 13.52-12.71 0-5.3-5.29-9.89-13.5-12.73 1.84-9.02.28-15.63-4.46-18.38-4.57-2.65-11.17-.34-17.72 5.39-6.81-6.08-13.34-7.94-18.08-5.18-4.57 2.66-5.87 9.55-4.21 18.11-8.04 2.82-13.59 7.51-13.59 12.79Z" fill="#FFF"/><path d="M55.53 21.51c-.66-.23-1.34-.44-2.04-.65.11-.47.22-.94.31-1.4 1.55-7.55.54-13.64-2.92-15.64-3.31-1.92-8.74.08-14.21 4.87-.53.46-1.06.95-1.58 1.46l-1.06-.98c-5.74-5.12-11.49-7.28-14.94-5.27-3.31 1.93-4.29 7.65-2.9 14.81.13.69.29 1.4.47 2.11-.81.24-1.6.48-2.35.75-6.73 2.35-11.03 6.05-11.03 9.88 0 3.96 4.61 7.93 11.62 10.33.56.19 1.13.37 1.72.54a45.1 45.1 0 0 0-.5 2.28c-1.33 7.04-.29 12.62 3.01 14.54 3.42 1.97 9.14-.06 14.72-4.96.44-.38.88-.79 1.32-1.22a48.1 48.1 0 0 0 1.72 1.57c5.4 4.67 10.74 6.56 14.04 4.64 3.41-1.98 4.51-7.98 3.08-15.28-.11-.56-.24-1.13-.39-1.71l1.19-.37c7.28-2.43 12.02-6.35 12.02-10.36 0-3.85-4.43-7.56-11.3-9.94Z" fill="#53C1DE"/><path d="M53.95 39.22c-.34.11-.7.23-1.06.33a65.29 65.29 0 0 0-3.22-8.09 63.34 63.34 0 0 0 3.09-7.97c.65.19 1.28.39 1.89.6 5.88 2.04 9.47 5.04 9.47 7.36 0 2.47-3.88 5.67-10.17 7.77Zm-2.61 5.19c.64 3.23.73 6.15.31 8.43-.38 2.05-1.14 3.42-2.08 3.97-2.01 1.16-6.29-.35-10.91-4.35-.53-.45-1.06-.94-1.59-1.46a63.6 63.6 0 0 0 5.32-6.8c3.07-.27 5.98-.72 8.61-1.33.13.53.24 1.04.34 1.54Zm-26.39 12.2c-1.96.69-3.52.71-4.46.16-2-1.16-2.84-5.64-1.7-11.66.13-.69.28-1.39.46-2.12 2.61.58 5.49 1 8.57 1.25a67.87 67.87 0 0 0 5.45 6.77c-.4.39-.81.77-1.21 1.12a22.95 22.95 0 0 1-7.11 4.48Zm-9.17-17.41a22.8 22.8 0 0 1-7.41-3.95c-1.58-1.36-2.37-2.71-2.37-3.8 0-2.32 3.45-5.29 9.2-7.31.7-.24 1.43-.47 2.19-.69.79 2.6 1.84 5.32 3.1 8.07a65.51 65.51 0 0 0-3.14 8.18c-.54-.16-1.07-.32-1.57-.5Zm3.07-21.02c-1.19-6.13-.4-10.75 1.6-11.92 2.12-1.23 6.83.53 11.78 4.95.32.28.64.58.95.89a65.66 65.66 0 0 0-5.41 6.73 66.1 66.1 0 0 0-8.48 1.32 54.5 54.5 0 0 1-.44-1.97Zm27.42 6.81a90.51 90.51 0 0 0-1.94-3.2c2.03.26 3.97.6 5.8 1.02a57.76 57.76 0 0 1-2.04 5.5 84.46 84.46 0 0 0-1.82-3.32Zm-11.18-10.94a59.8 59.8 0 0 1 3.74 4.53 78.41 78.41 0 0 0-7.51 0 56.91 56.91 0 0 1 3.77-4.53Zm-11.25 10.96a75.67 75.67 0 0 0-1.8 3.3 63.58 63.58 0 0 1-2.02-5.53c1.82-.41 3.75-.74 5.77-.99a72.35 72.35 0 0 0-1.95 3.22Zm2 16.3a58.17 58.17 0 0 1-5.85-.95 60.98 60.98 0 0 1 2.06-5.64 81.6 81.6 0 0 0 3.79 6.59Zm9.32 7.74a63 63 0 0 1-3.82-4.6 90.94 90.94 0 0 0 7.55-.01 55.67 55.67 0 0 1-3.73 4.61Zm12.96-14.42a55.08 55.08 0 0 1 2.13 5.61c-1.84.43-3.83.77-5.92 1.02a99.72 99.72 0 0 0 3.79-6.63Zm-4.19 2.02c-1 1.73-2.02 3.38-3.05 4.94a85 85 0 0 1-11.58.02 74.86 74.86 0 0 1-5.81-10.09 74.86 74.86 0 0 1 5.78-10.08 78.31 78.31 0 0 1 11.58 0 80.5 80.5 0 0 1 5.81 10.04 86.23 86.23 0 0 1-2.73 5.17Zm5.6-30.47c2.12 1.24 2.95 6.21 1.61 12.73-.08.42-.18.84-.28 1.27a64.6 64.6 0 0 0-8.5-1.35 63.03 63.03 0 0 0-5.37-6.74c.49-.47.98-.92 1.46-1.34 4.69-4.1 9.08-5.72 11.08-4.57Z" fill="#FFF"/><path d="M35.06 25.75a5.68 5.68 0 0 1 5.67 5.7 5.68 5.68 0 1 1-11.35 0c0-3.15 2.54-5.7 5.68-5.7Z" fill="#53C1DE"/></svg>